<?xml version="1.0" encoding="utf-8"?>
<svg viewBox="0 0 17 17" xmlns="http://www.w3.org/2000/svg">
  <g transform="matrix(0.1, 0, 0, -0.1, 0, 17)" fill="#000000" stroke="none">
    <path d="M0 145 c0 -20 5 -25 25 -25 20 0 25 5 25 25 0 20 -5 25 -25 25 -20 0 -25 -5 -25 -25z" style="fill: rgb(255, 255, 255);"/>
    <path d="M60 145 c0 -20 5 -25 25 -25 20 0 25 5 25 25 0 20 -5 25 -25 25 -20 0 -25 -5 -25 -25z" style="fill: rgb(255, 255, 255);"/>
    <path d="M120 145 c0 -20 5 -25 25 -25 20 0 25 5 25 25 0 20 -5 25 -25 25 -20 0 -25 -5 -25 -25z" style="fill: rgb(255, 255, 255);"/>
    <path d="M0 85 c0 -20 5 -25 25 -25 20 0 25 5 25 25 0 20 -5 25 -25 25 -20 0 -25 -5 -25 -25z" style="fill: rgb(255, 255, 255);"/>
    <path d="M60 85 c0 -20 5 -25 25 -25 20 0 25 5 25 25 0 20 -5 25 -25 25 -20 0 -25 -5 -25 -25z" style="fill: rgb(255, 255, 255);"/>
    <path d="M120 85 c0 -20 5 -25 25 -25 20 0 25 5 25 25 0 20 -5 25 -25 25 -20 0 -25 -5 -25 -25z" style="fill: rgb(255, 255, 255);"/>
    <path d="M0 25 c0 -20 5 -25 25 -25 20 0 25 5 25 25 0 20 -5 25 -25 25 -20 0 -25 -5 -25 -25z" style="fill: rgb(255, 255, 255);"/>
    <path d="M60 25 c0 -20 5 -25 25 -25 20 0 25 5 25 25 0 20 -5 25 -25 25 -20 0 -25 -5 -25 -25z" style="fill: rgb(255, 255, 255);"/>
    <path d="M120 25 c0 -20 5 -25 25 -25 20 0 25 5 25 25 0 20 -5 25 -25 25 -20 0 -25 -5 -25 -25z" style="fill: rgb(255, 255, 255);"/>
  </g>
</svg>